<svg xmlns="http://www.w3.org/2000/svg" width="64" height="64"><g clip-path="url(#a)"><path fill="url(#b)" d="M0 0h64v64H0z"/><path fill="#fff" d="M49.75 47.43c.04.26.06.64.06 1.15a6.1 6.1 0 0 1-.64 2.88c-1.62.09-3.26.32-4.93.7a22.7 22.7 0 0 0-4.54 1.42 3.4 3.4 0 0 1-1.6-1.22 5.02 5.02 0 0 1-.45-2.43c0-1.03.15-2.05.45-3.07a11.42 11.42 0 0 1-2.37 3.13 9.77 9.77 0 0 1-3.45 2.5c-1.54.72-3.2 1.09-5 1.09-3.88 0-6.95-1.11-9.21-3.33-2.22-2.26-3.33-5.68-3.33-10.24 0-3.24.73-6.15 2.18-8.7a15.44 15.44 0 0 1 6.14-6.02 18.73 18.73 0 0 1 9.15-2.18c1.58 0 3.14.22 4.67.64v-6.33c0-1.63-.32-2.76-.96-3.4-.6-.68-1.87-1.06-3.84-1.15 0-1.53.24-2.75.7-3.65 2.1 0 4.27-.2 6.54-.64a19 19 0 0 0 4.8-1.47c1.23.47 1.85 1.6 1.85 3.4v31.8c0 1.41.09 2.48.26 3.2.21.68.57 1.18 1.09 1.47.5.26 1.32.4 2.43.45Zm-19.59.96c1.84 0 3.42-.87 4.74-2.62 1.32-1.8 1.98-4.55 1.98-8.26v-8.45a6.81 6.81 0 0 0-2.17-1.6 5.54 5.54 0 0 0-2.63-.57c-2.09 0-3.94.87-5.56 2.62-1.58 1.75-2.37 4.8-2.37 9.15 0 3 .55 5.36 1.66 7.1 1.15 1.76 2.6 2.63 4.35 2.63Z"/></g><linearGradient id="b" x1="0" x2="71" y1="64" y2="13" gradientUnits="userSpaceOnUse"><stop stop-color="#543AB7"/><stop offset="1" stop-color="#00ACC1"/></linearGradient><clipPath id="a"><rect width="64" height="64" rx="8"/></clipPath></svg>